<mxfile host="65bd71144e">
    <diagram id="7UoQAEpAbXbsEUQsMNfD" name="ページ1">
        <mxGraphModel dx="1180" dy="674" grid="1" gridSize="10" guides="1" tooltips="1" connect="1" arrows="1" fold="1" page="1" pageScale="1" pageWidth="827" pageHeight="1169" math="0" shadow="0">
            <root>
                <mxCell id="0"/>
                <mxCell id="1" parent="0"/>
                <mxCell id="31" value="Yes" style="edgeStyle=none;html=1;" edge="1" parent="1" source="21" target="30">
                    <mxGeometry relative="1" as="geometry"/>
                </mxCell>
                <mxCell id="34" value="No" style="edgeStyle=none;html=1;exitX=1;exitY=0.5;exitDx=0;exitDy=0;entryX=0;entryY=0.5;entryDx=0;entryDy=0;" edge="1" parent="1" source="21" target="42">
                    <mxGeometry relative="1" as="geometry">
                        <mxPoint x="520" y="540" as="targetPoint"/>
                        <Array as="points">
                            <mxPoint x="660" y="260"/>
                        </Array>
                    </mxGeometry>
                </mxCell>
                <mxCell id="21" value="前回の分岐処理から5秒経過" style="rhombus;whiteSpace=wrap;html=1;" parent="1" vertex="1">
                    <mxGeometry x="440" y="240" width="160" height="40" as="geometry"/>
                </mxCell>
                <mxCell id="29" value="" style="edgeStyle=none;html=1;" edge="1" parent="1" source="22" target="21">
                    <mxGeometry relative="1" as="geometry"/>
                </mxCell>
                <mxCell id="22" value="周囲気温を取得し合計する" style="rounded=0;whiteSpace=wrap;html=1;" parent="1" vertex="1">
                    <mxGeometry x="240" y="240" width="160" height="40" as="geometry"/>
                </mxCell>
                <mxCell id="27" value="" style="edgeStyle=none;html=1;" parent="1" source="25" target="22" edge="1">
                    <mxGeometry relative="1" as="geometry"/>
                </mxCell>
                <mxCell id="25" value="初期気温、距離をセット" style="rounded=0;whiteSpace=wrap;html=1;" parent="1" vertex="1">
                    <mxGeometry x="40" y="240" width="160" height="40" as="geometry"/>
                </mxCell>
                <mxCell id="39" value="" style="edgeStyle=none;html=1;" edge="1" parent="1" source="30" target="38">
                    <mxGeometry relative="1" as="geometry"/>
                </mxCell>
                <mxCell id="48" value="" style="edgeStyle=none;html=1;" edge="1" parent="1" source="30">
                    <mxGeometry relative="1" as="geometry">
                        <mxPoint x="680" y="340" as="targetPoint"/>
                    </mxGeometry>
                </mxCell>
                <mxCell id="30" value="合計した周囲気温から平均値を算出する" style="rounded=0;whiteSpace=wrap;html=1;" vertex="1" parent="1">
                    <mxGeometry x="440" y="320" width="160" height="40" as="geometry"/>
                </mxCell>
                <mxCell id="46" value="" style="edgeStyle=none;html=1;entryX=0.5;entryY=1;entryDx=0;entryDy=0;entryPerimeter=0;" edge="1" parent="1" source="38" target="42">
                    <mxGeometry relative="1" as="geometry">
                        <mxPoint x="820" y="260" as="targetPoint"/>
                        <Array as="points">
                            <mxPoint x="920" y="340"/>
                        </Array>
                    </mxGeometry>
                </mxCell>
                <mxCell id="38" value="液晶モニタに算出した気温を表示する" style="rounded=0;whiteSpace=wrap;html=1;" vertex="1" parent="1">
                    <mxGeometry x="640" y="320" width="160" height="40" as="geometry"/>
                </mxCell>
                <mxCell id="43" value="" style="edgeStyle=none;html=1;exitX=1;exitY=0.5;exitDx=0;exitDy=0;entryX=0.5;entryY=0;entryDx=0;entryDy=0;" edge="1" parent="1" source="42" target="51">
                    <mxGeometry relative="1" as="geometry">
                        <mxPoint x="1040" y="420" as="sourcePoint"/>
                        <mxPoint x="320" y="400" as="targetPoint"/>
                        <Array as="points">
                            <mxPoint x="1040" y="260"/>
                            <mxPoint x="1040" y="380"/>
                            <mxPoint x="120" y="380"/>
                        </Array>
                    </mxGeometry>
                </mxCell>
                <mxCell id="42" value="気温から音速を算出する" style="rounded=0;whiteSpace=wrap;html=1;" vertex="1" parent="1">
                    <mxGeometry x="840" y="240" width="160" height="40" as="geometry"/>
                </mxCell>
                <mxCell id="44" value="気温から音速を算出する" style="rounded=0;whiteSpace=wrap;html=1;" vertex="1" parent="1">
                    <mxGeometry x="440" y="720" width="160" height="40" as="geometry"/>
                </mxCell>
                <mxCell id="53" value="" style="edgeStyle=none;html=1;" edge="1" parent="1" source="51" target="52">
                    <mxGeometry relative="1" as="geometry"/>
                </mxCell>
                <mxCell id="51" value="超音波センサの反応時間を算出する" style="rounded=0;whiteSpace=wrap;html=1;" vertex="1" parent="1">
                    <mxGeometry x="40" y="400" width="160" height="40" as="geometry"/>
                </mxCell>
                <mxCell id="54" value="" style="edgeStyle=none;html=1;" edge="1" parent="1" source="52">
                    <mxGeometry relative="1" as="geometry">
                        <mxPoint x="440" y="420" as="targetPoint"/>
                    </mxGeometry>
                </mxCell>
                <mxCell id="52" value="反応時間と音速から距離を算出し合計する" style="rounded=0;whiteSpace=wrap;html=1;" vertex="1" parent="1">
                    <mxGeometry x="240" y="400" width="160" height="40" as="geometry"/>
                </mxCell>
                <mxCell id="55" value="Yes" style="edgeStyle=none;html=1;" edge="1" parent="1" source="57" target="60">
                    <mxGeometry relative="1" as="geometry"/>
                </mxCell>
                <mxCell id="56" value="No" style="edgeStyle=none;html=1;exitX=1;exitY=0.5;exitDx=0;exitDy=0;entryX=0;entryY=0.5;entryDx=0;entryDy=0;" edge="1" parent="1" source="57" target="63">
                    <mxGeometry relative="1" as="geometry">
                        <mxPoint x="520" y="700" as="targetPoint"/>
                        <Array as="points">
                            <mxPoint x="660" y="420"/>
                        </Array>
                    </mxGeometry>
                </mxCell>
                <mxCell id="57" value="&lt;span style=&quot;color: rgb(0, 0, 0);&quot;&gt;前回の分岐処理から&lt;/span&gt;1秒経過" style="rhombus;whiteSpace=wrap;html=1;" vertex="1" parent="1">
                    <mxGeometry x="440" y="400" width="160" height="40" as="geometry"/>
                </mxCell>
                <mxCell id="58" value="" style="edgeStyle=none;html=1;" edge="1" parent="1" source="60" target="62">
                    <mxGeometry relative="1" as="geometry"/>
                </mxCell>
                <mxCell id="59" value="" style="edgeStyle=none;html=1;" edge="1" parent="1" source="60">
                    <mxGeometry relative="1" as="geometry">
                        <mxPoint x="680" y="500" as="targetPoint"/>
                    </mxGeometry>
                </mxCell>
                <mxCell id="60" value="合計した距離から平均値を算出する" style="rounded=0;whiteSpace=wrap;html=1;" vertex="1" parent="1">
                    <mxGeometry x="440" y="480" width="160" height="40" as="geometry"/>
                </mxCell>
                <mxCell id="61" value="" style="edgeStyle=none;html=1;entryX=0.5;entryY=1;entryDx=0;entryDy=0;entryPerimeter=0;" edge="1" parent="1" source="62" target="63">
                    <mxGeometry relative="1" as="geometry">
                        <mxPoint x="820" y="420" as="targetPoint"/>
                        <Array as="points">
                            <mxPoint x="920" y="500"/>
                        </Array>
                    </mxGeometry>
                </mxCell>
                <mxCell id="62" value="液晶モニタに算出した距離を表示する" style="rounded=0;whiteSpace=wrap;html=1;" vertex="1" parent="1">
                    <mxGeometry x="640" y="480" width="160" height="40" as="geometry"/>
                </mxCell>
                <mxCell id="65" value="繰り返し" style="edgeStyle=none;html=1;entryX=0.5;entryY=0;entryDx=0;entryDy=0;" edge="1" parent="1" source="63" target="22">
                    <mxGeometry relative="1" as="geometry">
                        <mxPoint x="126" y="200" as="targetPoint"/>
                        <Array as="points">
                            <mxPoint x="1080" y="420"/>
                            <mxPoint x="1080" y="200"/>
                            <mxPoint x="320" y="200"/>
                        </Array>
                    </mxGeometry>
                </mxCell>
                <mxCell id="63" value="0.2秒待機" style="rounded=0;whiteSpace=wrap;html=1;" vertex="1" parent="1">
                    <mxGeometry x="840" y="400" width="160" height="40" as="geometry"/>
                </mxCell>
            </root>
        </mxGraphModel>
    </diagram>
</mxfile>
